<svg
   xmlns:dc="http://purl.org/dc/elements/1.1/"
   xmlns:cc="http://creativecommons.org/ns#"
   xmlns:rdf="http://www.w3.org/1999/02/22-rdf-syntax-ns#"
   xmlns:svg="http://www.w3.org/2000/svg"
   xmlns="http://www.w3.org/2000/svg"
   xmlns:xlink="http://www.w3.org/1999/xlink"
   version="1.1"
   viewBox="0 0 738 752"
   id="my-map">
  <g
     id="layer3"
     style="display:inline">
    <rect
       width="738"
       height="752"
       x="0"
       y="-6.7498659e-005"
       id="svg-background"
       style="fill: #fff;"/>
    <path
       d="M 54.03125,0.06250002 55.75,272.78125 1.0384261e-8,271.6875 -0.12499999,287.84375 56.375,288.15625 58.3125,703.9375 0,703.875 l 0.15625001,16.84375 58.15624999,-0.75 -0.625,32.1875 39.125,0.25 -0.0625,-34.375 256.90625,2.5625 231.90625,-4.46875 67.90625,0 17.9375,-4.5 9.625,-10.875 5.75,-23.71875 L 684.875,604 l 53.25,-0.625 0.1875,-14.6875 -52.8125,-0.0625 1.28125,-161.4375 51.3125,0.59375 0.0625,-15.21875 -53.28125,-0.75 -3.21875,-347.25 L 682.375,0.21874999 665.96875,0.09375 666.9375,92.125 l -214,1.90625 -112.75,-12.8125 19.5625,-81.24999999 -16.78125,0.09375 -17.5,79.87499999 -138.40625,-33.3125 -6.40625,1.9375 -3.1875,4.46875 0,5.125 1.90625,2.5625 8.34375,2.5625 L 322.25,92.75 l -5.125,57.6875 -1.9375,119.15625 -219.09375,2.5625 -0.6875,-272.125 z m 284.125,95.84374998 73.375,11.3125 40.78125,2.71875 50.28125,0 164.4375,-3.15625 0.90625,164.875 -337.5,-1.34375 1.375,-88.78125 0.90625,-33.09375 z m 170.28125,188.1875 158.875,1.28125 1.9375,390.15625 -3.84375,14.75 L 659,699.25 509.09375,700.53125 z m -179.375,1.28125 164,0 0,415.15625 -161.4375,2.5625 z m -13.875,0.21875 L 317.125,705.875 98.03125,702.65625 94.8125,409.25 l -0.625,-123 z"
       id="path3942"
       class="street"
       style="stroke-linecap:butt;stroke-linejoin:miter;stroke-miterlimit:4;stroke-dasharray:none" />
    <path
       d="m 379.90068,204.07914 0,38.11902 -11.85213,0 0,-9.60984 -15.69607,0 0,-28.82951 z"
       id="path4010"
       class="house"
       style="stroke-linecap:butt;stroke-linejoin:miter;stroke-miterlimit:4;stroke-dasharray:none;display:inline" />
    <path
       d="m 389.19019,235.7916 17.93836,0 0,6.40656 10.2505,0 0,-29.79049 -28.50919,0 z"
       id="path4012"
       class="house"
       style="stroke-linecap:butt;stroke-linejoin:miter;stroke-miterlimit:4;stroke-dasharray:none;display:inline" />
    <path
       d="m 457.74036,219.13455 0,23.06361 -16.01639,0 0,-6.40656 -16.0164,0 0,-17.2977 z"
       id="path4016"
       class="house"
       style="stroke-linecap:butt;stroke-linejoin:miter;stroke-miterlimit:4;stroke-dasharray:none;display:inline" />
    <path
       d="m 496.82036,218.4939 0,23.70426 -31.0718,0 0,-23.06361 z"
       id="path4018"
       class="house"
       style="stroke-linecap:butt;stroke-linejoin:miter;stroke-miterlimit:4;stroke-dasharray:none;display:inline" />
    <path
       d="m 535.25971,204.7198 0,41.64262 -9.60984,0 0,-8.64885 -21.14164,0 0,-33.3141 z"
       id="path4020"
       class="house"
       style="stroke-linecap:butt;stroke-linejoin:miter;stroke-miterlimit:4;stroke-dasharray:none;display:inline" />
    <path
       d="m 571.77709,210.80603 0,30.43115 -10.25049,0 0,-8.0082 -19.21968,0 0,-23.06361 z"
       id="path4026"
       class="house"
       style="stroke-linecap:butt;stroke-linejoin:miter;stroke-miterlimit:4;stroke-dasharray:none;display:inline" />
    <path
       d="m 609.89611,206.00111 0,33.3141 -25.94656,0 0,-34.27508 z"
       id="path4028"
       class="house"
       style="stroke-linecap:butt;stroke-linejoin:miter;stroke-miterlimit:4;stroke-dasharray:none;display:inline" />
    <path
       d="m 648.97611,206.96209 0,34.59542 -29.47016,0 0,-34.59542 z"
       id="path4030"
       class="house"
       style="stroke-linecap:butt;stroke-linejoin:miter;stroke-miterlimit:4;stroke-dasharray:none;display:inline" />
    <path
       d="m 632.95972,129.44274 0,9.93017 17.93836,0 0,20.82131 -33.3141,0 0,-31.0718 z"
       id="path4032"
       class="house"
       style="stroke-linecap:butt;stroke-linejoin:miter;stroke-miterlimit:4;stroke-dasharray:none;display:inline" />
    <path
       d="m 580.10562,131.36471 0,33.3141 31.39213,0 0,-32.35312 z"
       id="path4034"
       class="house"
       style="stroke-linecap:butt;stroke-linejoin:miter;stroke-miterlimit:4;stroke-dasharray:none;display:inline" />
    <path
       d="m 541.66627,131.04438 2.56262,35.5564 30.75148,-0.96099 -2.88295,-35.87672 z"
       id="path4036"
       class="house"
       style="stroke-linecap:butt;stroke-linejoin:miter;stroke-miterlimit:4;stroke-dasharray:none;display:inline" />
    <path
       d="m 522.12627,130.72405 0,4.16427 -16.65705,0 0,28.18885 32.03279,0 0,-32.35312 z"
       id="path4038"
       class="house"
       style="stroke-linecap:butt;stroke-linejoin:miter;stroke-miterlimit:4;stroke-dasharray:none;display:inline" />
    <path
       d="m 464.14692,130.40373 0,34.27508 30.75148,0 0,-33.63443 z"
       id="path4042"
       class="house"
       style="stroke-linecap:butt;stroke-linejoin:miter;stroke-miterlimit:4;stroke-dasharray:none;display:inline" />
    <path
       d="m 441.08331,130.40373 0,8.00819 17.61803,0 0,24.66525 -32.03278,0 0,-32.99377 z"
       id="path4044"
       class="house"
       style="stroke-linecap:butt;stroke-linejoin:miter;stroke-miterlimit:4;stroke-dasharray:none;display:inline" />
    <path
       d="m 388.86986,129.12242 0,33.63442 29.47017,0 0,-32.67344 z"
       id="path4046"
       class="house"
       style="stroke-linecap:butt;stroke-linejoin:miter;stroke-miterlimit:4;stroke-dasharray:none;display:inline" />
    <path
       d="m 369.00953,124.95815 0,6.72689 -16.01639,0 0,17.61803 27.22787,0 0,-24.02459 z"
       id="path4048"
       class="house"
       style="stroke-linecap:butt;stroke-linejoin:miter;stroke-miterlimit:4;stroke-dasharray:none;display:inline" />
    <path
       d="m 384.15422,306.68916 0,28.08674 -17.21446,0 0,-29.89879 16.76145,0 z"
       id="path4241"
       class="house"
       style="stroke-linecap:butt;stroke-linejoin:miter;stroke-miterlimit:4;stroke-dasharray:none" />
    <path
       d="m 436.2506,307.14217 0,16.30843 -5.43614,0 0,12.68434 39.86506,0 0,-29.44578 z"
       id="path4243"
       class="house"
       style="stroke-linecap:butt;stroke-linejoin:miter;stroke-miterlimit:4;stroke-dasharray:none" />
    <path
       d="m 441.23374,344.28916 0,30.80482 24.00963,0 0,-17.21446 7.2482,0 0,-13.59036 z"
       id="path4245"
       class="house"
       style="stroke-linecap:butt;stroke-linejoin:miter;stroke-miterlimit:4;stroke-dasharray:none" />
    <path
       d="m 393.21446,352.89639 0,23.10361 -25.36868,0 0,-23.10361 z"
       id="path4247"
       class="house"
       style="stroke-linecap:butt;stroke-linejoin:miter;stroke-miterlimit:4;stroke-dasharray:none" />
    <path
       d="m 359.23855,383.7012 0,16.76145 6.34217,0 0,11.77831 30.35181,0 0,-28.08674 z"
       id="path4249"
       class="house"
       style="stroke-linecap:butt;stroke-linejoin:miter;stroke-miterlimit:4;stroke-dasharray:none" />
    <path
       d="m 441.68675,381.43614 0,29.8988 25.36867,0 0,-28.53976 z"
       id="path4251"
       class="house"
       style="stroke-linecap:butt;stroke-linejoin:miter;stroke-miterlimit:4;stroke-dasharray:none" />
    <path
       d="m 371.46988,419.94217 0,17.21446 -11.3253,0 0,14.49638 37.14699,0 0,-33.06988 z"
       id="path4255"
       class="house"
       style="stroke-linecap:butt;stroke-linejoin:miter;stroke-miterlimit:4;stroke-dasharray:none" />
    <path
       d="m 393.66747,460.71325 0,29.44579 -34.88193,0 0,-15.40241 9.06024,0 0,-14.9494 z"
       id="path4257"
       class="house"
       style="stroke-linecap:butt;stroke-linejoin:miter;stroke-miterlimit:4;stroke-dasharray:none" />
    <path
       d="m 446.21687,460.71325 0,28.53976 18.57349,0 0,-28.53976 z"
       id="path4259"
       class="house"
       style="stroke-linecap:butt;stroke-linejoin:miter;stroke-miterlimit:4;stroke-dasharray:none" />
    <path
       d="m 433.53253,420.84819 0,29.8988 34.88193,0 0,-28.99277 z"
       id="path4261"
       class="house"
       style="stroke-linecap:butt;stroke-linejoin:miter;stroke-miterlimit:4;stroke-dasharray:none" />
    <path
       d="m 366.48675,497.86024 0,30.80482 26.72771,0 0,-32.16386 z"
       id="path4263"
       class="house"
       style="stroke-linecap:butt;stroke-linejoin:miter;stroke-miterlimit:4;stroke-dasharray:none" />
    <path
       d="m 370.56386,536.36626 0,16.30844 -8.60723,0 0,14.04337 28.99277,0 0,-30.80482 z"
       id="path4265"
       class="house"
       style="stroke-linecap:butt;stroke-linejoin:miter;stroke-miterlimit:4;stroke-dasharray:none" />
    <path
       d="m 434.43855,537.7253 0,28.99277 33.97591,0 0,-28.99277 z"
       id="path4267"
       class="house"
       style="stroke-linecap:butt;stroke-linejoin:miter;stroke-miterlimit:4;stroke-dasharray:none" />
    <path
       d="m 441.23374,499.21928 0,28.53976 21.74457,0 0,-16.30844 8.60723,0 0,-12.68434 z"
       id="path4269"
       class="house"
       style="stroke-linecap:butt;stroke-linejoin:miter;stroke-miterlimit:4;stroke-dasharray:none" />
    <path
       d="m 442.13976,575.77831 0,30.80482 22.19759,0 0,-21.29156 7.24819,0 0,-10.87229 z"
       id="path4271"
       class="house"
       style="stroke-linecap:butt;stroke-linejoin:miter;stroke-miterlimit:4;stroke-dasharray:none" />
    <path
       d="m 392.76145,574.41928 0,31.25783 -31.71085,0 0,-31.71085 29.44579,0 z"
       id="path4273"
       class="house"
       style="stroke-linecap:butt;stroke-linejoin:miter;stroke-miterlimit:4;stroke-dasharray:none" />
    <path
       d="m 362.86265,613.37831 0,30.80482 26.2747,0 0,-30.80482 z"
       id="path4275"
       class="house"
       style="stroke-linecap:butt;stroke-linejoin:miter;stroke-miterlimit:4;stroke-dasharray:none" />
    <path
       d="m 434.43855,612.9253 0,30.35181 32.61687,0 0,-31.25783 z"
       id="path4279"
       class="house"
       style="stroke-linecap:butt;stroke-linejoin:miter;stroke-miterlimit:4;stroke-dasharray:none" />
    <path
       d="m 438.06265,649.61928 0,18.12048 -7.24819,0 0,12.23132 38.05301,0 0,-28.53975 z"
       id="path4281"
       class="house"
       style="stroke-linecap:butt;stroke-linejoin:miter;stroke-miterlimit:4;stroke-dasharray:none" />
    <path
       d="m 391.85542,650.97831 0,27.63374 -26.2747,0 0,-12.23133 -5.88915,0 0,-17.21445 z"
       id="path4283"
       class="house"
       style="stroke-linecap:butt;stroke-linejoin:miter;stroke-miterlimit:4;stroke-dasharray:none" />
    <path
       d="m 537.7253,307.14217 0,27.18072 19.02651,0 0,-27.18072 z"
       id="path4285"
       class="house"
       style="stroke-linecap:butt;stroke-linejoin:miter;stroke-miterlimit:4;stroke-dasharray:none" />
    <path
       d="m 611.11325,305.78313 0,29.8988 30.35181,0 0,-28.99277 z"
       id="path4289"
       class="house"
       style="stroke-linecap:butt;stroke-linejoin:miter;stroke-miterlimit:4;stroke-dasharray:none" />
    <path
       d="m 613.83133,345.64819 0,25.82169 28.53975,0 -0.90602,-27.63374 z"
       id="path4291"
       class="house"
       style="stroke-linecap:butt;stroke-linejoin:miter;stroke-miterlimit:4;stroke-dasharray:none" />
    <path
       d="m 533.64819,346.1012 0,28.99278 33.52289,0 0,-30.35181 z"
       id="path4293"
       class="house"
       style="stroke-linecap:butt;stroke-linejoin:miter;stroke-miterlimit:4;stroke-dasharray:none" />
    <path
       d="m 532.74217,382.34217 0,28.08675 33.9759,0 0,-5.43615 7.2482,0 0,-24.91566 z"
       id="path4295"
       class="house"
       style="stroke-linecap:butt;stroke-linejoin:miter;stroke-miterlimit:4;stroke-dasharray:none" />
    <path
       d="m 540.89639,419.48916 0,19.47951 -8.60723,0 0,10.87229 32.16385,0 0,-30.3518 z"
       id="path4299"
       class="house"
       style="stroke-linecap:butt;stroke-linejoin:miter;stroke-miterlimit:4;stroke-dasharray:none" />
    <path
       d="m 563.54699,461.61928 0,26.2747 -29.44578,0 0,-30.80482 29.89879,0 z"
       id="path4301"
       class="house"
       style="stroke-linecap:butt;stroke-linejoin:miter;stroke-miterlimit:4;stroke-dasharray:none" />
    <path
       d="m 534.55422,496.04819 0,31.71085 34.42891,0 0,-31.71085 z"
       id="path4303"
       class="house"
       style="stroke-linecap:butt;stroke-linejoin:miter;stroke-miterlimit:4;stroke-dasharray:none" />
    <path
       d="m 535.91325,535.91325 0,30.35181 30.35181,0 0,-19.02651 -4.53012,0 0,-11.77831 z"
       id="path4305"
       class="house"
       style="stroke-linecap:butt;stroke-linejoin:miter;stroke-miterlimit:4;stroke-dasharray:none" />
    <path
       d="m 533.64819,575.77831 0,11.3253 6.34217,0 0,16.76145 28.53976,0 0,-30.35181 z"
       id="path4307"
       class="house"
       style="stroke-linecap:butt;stroke-linejoin:miter;stroke-miterlimit:4;stroke-dasharray:none" />
    <path
       d="m 563.54699,612.9253 0,29.8988 -19.93253,0 0,-16.30844 -8.60723,0 0,-14.49638 z"
       id="path4309"
       class="house"
       style="stroke-linecap:butt;stroke-linejoin:miter;stroke-miterlimit:4;stroke-dasharray:none" />
    <path
       d="m 533.64819,651.88434 0,11.3253 5.43615,0 0,14.49638 17.66747,0 0,-26.72771 z"
       id="path4311"
       class="house"
       style="stroke-linecap:butt;stroke-linejoin:miter;stroke-miterlimit:4;stroke-dasharray:none" />
    <path
       d="m 603.41205,649.61928 0,33.06988 15.40241,0 0,-18.12049 13.59036,0 0,-14.04337 z"
       id="path4313"
       class="house"
       style="stroke-linecap:butt;stroke-linejoin:miter;stroke-miterlimit:4;stroke-dasharray:none" />
    <path
       d="m 632.40482,641.01205 -18.57349,0 0,-28.99277 29.44578,0 0,14.49638 -10.41928,0 z"
       id="path4315"
       class="house"
       style="stroke-linecap:butt;stroke-linejoin:miter;stroke-miterlimit:4;stroke-dasharray:none" />
    <path
       d="m 612.01928,589.82169 0,13.59036 28.99277,0 0,-29.8988 -33.52289,0 0,17.21446 z"
       id="path4319"
       class="house"
       style="stroke-linecap:butt;stroke-linejoin:miter;stroke-miterlimit:4;stroke-dasharray:none" />
    <path
       d="m 613.37831,534.1012 0,30.80482 26.2747,0 0,-28.53976 z"
       id="path4321"
       class="house"
       style="stroke-linecap:butt;stroke-linejoin:miter;stroke-miterlimit:4;stroke-dasharray:none" />
    <path
       d="m 605.2241,494.23614 0,30.80482 36.24096,0 0,-27.63373 z"
       id="path4323"
       class="house"
       style="stroke-linecap:butt;stroke-linejoin:miter;stroke-miterlimit:4;stroke-dasharray:none" />
    <path
       d="m 608.84819,457.08916 0,31.25783 22.19759,0 0,-19.93253 13.13735,0 0,-11.3253 z"
       id="path4325"
       class="house"
       style="stroke-linecap:butt;stroke-linejoin:miter;stroke-miterlimit:4;stroke-dasharray:none" />
    <path
       d="m 609.30121,418.58313 0,31.25783 30.80481,0 0,-31.71084 z"
       id="path4327"
       class="house"
       style="stroke-linecap:butt;stroke-linejoin:miter;stroke-miterlimit:4;stroke-dasharray:none" />
    <path
       d="m 612.9253,383.24819 0,29.44579 23.55663,0 0,-19.02651 7.24819,0 0,-10.41928 z"
       id="path4329"
       class="house"
       style="stroke-linecap:butt;stroke-linejoin:miter;stroke-miterlimit:4;stroke-dasharray:none" />
    <path
       d="m 708.24497,530.3331 0,22.10262 13.13344,0 0,8.0082 9.28951,0 0,-30.43115 z"
       id="path4331"
       class="house"
       style="stroke-linecap:butt;stroke-linejoin:miter;stroke-miterlimit:4;stroke-dasharray:none" />
    <path
       d="m 712.40923,631.55671 0,15.05541 -6.08623,0 0,12.81312 24.34492,0 0,-28.50918 z"
       id="path4333"
       class="house"
       style="stroke-linecap:butt;stroke-linejoin:miter;stroke-miterlimit:4;stroke-dasharray:none" />
    <path
       d="m 706.64333,449.9308 0,29.14984 20.82131,0 0,-22.42296 -6.08623,0 0,-6.72688 z"
       id="path4335"
       class="house"
       style="stroke-linecap:butt;stroke-linejoin:miter;stroke-miterlimit:4;stroke-dasharray:none" />
    <path
       d="m 708.5653,360.87964 0,22.74328 20.50098,0 0,-22.10262 z"
       id="path4339"
       class="house"
       style="stroke-linecap:butt;stroke-linejoin:miter;stroke-miterlimit:4;stroke-dasharray:none" />
    <path
       d="m 618.87349,39.911097 0,25.305904 24.02459,0 0,-40.040987 -8.0082,0 0,15.055411 z"
       id="path4341"
       class="house"
       style="stroke-linecap:butt;stroke-linejoin:miter;stroke-miterlimit:4;stroke-dasharray:none" />
    <path
       d="m 610.22463,43.755032 0,23.063608 -13.45377,0 0,-6.406558 -15.69606,0 0,-17.618034 z"
       id="path4343"
       class="house"
       style="stroke-linecap:butt;stroke-linejoin:miter;stroke-miterlimit:4;stroke-dasharray:none" />
    <path
       d="m 569.86332,36.38749 0,31.392134 -14.09443,0 0,-8.328525 -16.01639,0 0,-22.102625 z"
       id="path4345"
       class="house"
       style="stroke-linecap:butt;stroke-linejoin:miter;stroke-miterlimit:4;stroke-dasharray:none" />
    <path
       d="m 500.67249,34.145195 0,34.595412 33.63443,0 0,-33.634428 z"
       id="path4347"
       class="house"
       style="stroke-linecap:butt;stroke-linejoin:miter;stroke-miterlimit:4;stroke-dasharray:none" />
    <path
       d="m 460.63151,31.582572 0,28.82951 16.65705,0 0,8.648853 16.01639,0 0,-38.439347 z"
       id="path4349"
       class="house"
       style="stroke-linecap:butt;stroke-linejoin:miter;stroke-miterlimit:4;stroke-dasharray:none" />
    <path
       d="m 421.87183,27.418309 -2.56262,38.11902 29.47017,1.601639 4.16426,-37.478363 z"
       id="path4351"
       class="house"
       style="stroke-linecap:butt;stroke-linejoin:miter;stroke-miterlimit:4;stroke-dasharray:none" />
    <path
       d="m 375.10396,33.824867 0,24.024592 17.29771,0 0,8.648853 14.73508,0 0,-33.634428 z"
       id="path4353"
       class="house"
       style="stroke-linecap:butt;stroke-linejoin:miter;stroke-miterlimit:4;stroke-dasharray:none" />
    <path
       d="m 264.27051,315.07276 0,35.55639 30.43115,0 0,-27.22787 -16.01639,0 0,-9.60984 z"
       id="path4355"
       class="house"
       style="stroke-linecap:butt;stroke-linejoin:miter;stroke-miterlimit:4;stroke-dasharray:none" />
    <path
       d="m 228.39379,314.11177 0,36.51738 28.50918,0 0,-35.23607 z"
       id="path4357"
       class="house"
       style="stroke-linecap:butt;stroke-linejoin:miter;stroke-miterlimit:4;stroke-dasharray:none" />
    <path
       d="m 189.63411,317.63538 0,25.62623 29.47017,0 0,-25.3059 z"
       id="path4359"
       class="house"
       style="stroke-linecap:butt;stroke-linejoin:miter;stroke-miterlimit:4;stroke-dasharray:none" />
    <path
       d="m 167.53149,316.03374 -0.32033,9.28951 -15.37574,0 0,20.18066 28.82951,0 0,-32.03279 -13.45377,0 z"
       id="path4363"
       class="house"
       style="stroke-linecap:butt;stroke-linejoin:miter;stroke-miterlimit:4;stroke-dasharray:none" />
    <path
       d="m 114.03673,315.71341 0,33.63443 29.79049,0 0,-34.91574 z"
       id="path4365"
       class="house"
       style="stroke-linecap:butt;stroke-linejoin:miter;stroke-miterlimit:4;stroke-dasharray:none" />
    <path
       d="m 114.99771,207.44258 0,26.90755 15.37574,0 0,10.25049 15.69607,0 0,-37.79869 z"
       id="path4367"
       class="house"
       style="stroke-linecap:butt;stroke-linejoin:miter;stroke-miterlimit:4;stroke-dasharray:none" />
    <path
       d="m 151.83542,198.4734 0,37.79869 27.5482,0 0,-38.75967 z"
       id="path4369"
       class="house"
       style="stroke-linecap:butt;stroke-linejoin:miter;stroke-miterlimit:4;stroke-dasharray:none" />
    <path
       d="m 188.3528,212.2475 0,24.02459 18.89935,0 0,7.36755 12.17246,0 0,-31.07181 z"
       id="path4371"
       class="house"
       style="stroke-linecap:butt;stroke-linejoin:miter;stroke-miterlimit:4;stroke-dasharray:none" />
    <path
       d="m 229.03444,204.55963 0,39.08001 29.14984,0 0,-38.43935 z"
       id="path4373"
       class="house"
       style="stroke-linecap:butt;stroke-linejoin:miter;stroke-miterlimit:4;stroke-dasharray:none" />
    <path
       d="m 263.95018,209.68488 0,32.35312 31.71246,0 0,-34.27509 -32.03279,0 z"
       id="path4375"
       class="house"
       style="stroke-linecap:butt;stroke-linejoin:miter;stroke-miterlimit:4;stroke-dasharray:none" />
    <path
       d="m 287.65445,2.112406 -10.59957,39.558128 32.38186,7.209744 8.32853,-35.236068 -10.89115,-2.562623 -0.96098,-9.6098368 z"
       id="path4377"
       class="house"
       style="stroke-linecap:butt;stroke-linejoin:miter;stroke-miterlimit:4;stroke-dasharray:none" />
    <path
       d="M 274.84133,12.683226 270.35674,39.911097 237.04264,31.9029 245.69149,-0.45021711 272.34121,0.08109446 268.7551,11.401915 z"
       id="path4379"
       class="house"
       style="stroke-linecap:butt;stroke-linejoin:miter;stroke-miterlimit:4;stroke-dasharray:none" />
    <path
       d="m 196.63448,0.04207809 0.125,3.25000001 0.5625,10.0318039 28.82951,0 0,-13.45377122 z"
       id="path4381"
       class="house"
       style="stroke-linecap:butt;stroke-linejoin:miter;stroke-miterlimit:4;stroke-dasharray:none" />
    <path
       d="M 149.21813,0.03425019 163.46106,25.49172 185.99438,12.4821 178.06609,-0.08383971 z"
       id="path4383"
       class="house"
       style="stroke-linecap:butt;stroke-linejoin:miter;stroke-miterlimit:4;stroke-dasharray:none" />
    <path
       d="m 126.52952,28.699621 -8.0082,31.071805 37.15804,7.68787 8.64885,-30.751478 z"
       id="path4385"
       class="house"
       style="stroke-linecap:butt;stroke-linejoin:miter;stroke-miterlimit:4;stroke-dasharray:none" />
    <path
       d="m 161.12493,77.069133 -29.14984,22.422952 18.89935,21.141645 22.42295,-16.33673 -8.32853,-9.289505 7.68787,-5.445575 z"
       id="path4387"
       class="house"
       style="stroke-linecap:butt;stroke-linejoin:miter;stroke-miterlimit:4;stroke-dasharray:none" />
    <path
       d="m 185.79018,100.45307 -17.29771,28.82951 8.32853,3.52361 -5.76591,8.64885 17.93837,10.57082 21.78229,-39.72066 z"
       id="path4389"
       class="house"
       style="stroke-linecap:butt;stroke-linejoin:miter;stroke-miterlimit:4;stroke-dasharray:none" />
    <path
       d="m 229.6751,97.570118 -9.71867,36.270562 25.03383,6.70779 8.27914,-30.89819 -12.79011,-3.4271 1.91888,-7.161381 z"
       id="path4391"
       class="house"
       style="stroke-linecap:butt;stroke-linejoin:miter;stroke-miterlimit:4;stroke-dasharray:none" />
    <path
       d="m 262.34854,106.85963 -4.48459,30.11082 30.75148,3.52361 3.84393,-31.39214 z"
       id="path4393"
       class="house"
       style="stroke-linecap:butt;stroke-linejoin:miter;stroke-miterlimit:4;stroke-dasharray:none" />
    <path
       d="m 107.81687,261.38795 196.15421,-1.81205 -1.35903,-77.91807 3.62409,-53.45542 2.26506,-27.18072 -131.8265,-31.257835 -8.60723,-7.248193 1.81205,-16.308433 9.96626,-9.060241 17.21446,1.359036 L 312.1253,64.32771 317.56145,61.609638 332.05783,-0.07801245 340.21205,-3.9679026e-7 324.80964,70.216867 l 2.26506,1.812048 -1.63527,7.723346 -11.50208,-2.740213 -0.45301,-4.530121 -120.50121,-28.086747 -10.87229,-0.453012 -6.79518,6.342169 -0.45301,12.231325 9.51325,4.077109 127.29639,27.633735 3.17108,-3.171085 7.27034,1.889366 -0.92817,9.435933 -4.07711,-0.45301 -6.34216,82.44819 0.90602,76.10603 3.6241,2.71807 0,6.34217 -6.34217,0 -2.26506,-4.07711 -198.87229,1.35904 -2.26506,5.43614 -9.402727,-0.0884 0.342483,-6.70679 3.171085,-2.71807 -0.656024,-262.71506269 5.701653,0.046988 1.74955,257.23192469 z"
       id="path4395"
       class="sidewalk"
       style="stroke-linecap:butt;stroke-linejoin:miter;stroke-miterlimit:4;stroke-dasharray:none" />
    <path
       d="m 338.34375,95.4375 -1.39461,10.53661 3.51961,0.77589 -3.875,40.3125 -2.125,111.71875 -3.90625,0.71875 0,10.75 7.78125,0 0.71875,-3.3125 314.65625,0.34375 0.71875,4.25 13.26072,0.15533 0.17678,-12.53033 -4.25,0.34375 -1.40625,-143.90625 4.59375,0 0.33211,-8.75536 -13.42586,0.28661 0.71875,3.1875 -54.8125,1.40625 -146.03125,1.75 -42.40625,-2.8125 -63.65625,-9.5625 0.71875,-3.53125 z m 8.125,13.4375 58,8.15625 50.90625,3.875 48.09375,0 152.375,-1.78125 L 655.125,258.4375 467.03125,259.15625 341.875,258.4375 342.9375,150.25 z"
       id="path4399"
       class="sidewalk"
       style="stroke-linecap:butt;stroke-linejoin:miter;stroke-miterlimit:4;stroke-dasharray:none" />
    <path
       d="m 108.18734,372.99077 193.04015,-2.82843 0.7071,320.31937 -88.38834,-0.70711 -2.12132,-40.30508 -54.44723,-41.0122 -47.37615,0 z"
       id="path4404"
       class="park"
       style="stroke-linecap:butt;stroke-linejoin:miter;stroke-miterlimit:4;stroke-dasharray:none" />
  </g>
</svg>
